<svg width="364" height="284" viewBox="0 0 364 284" fill="none" xmlns="http://www.w3.org/2000/svg">
    <path
        d="M5.28947 48.5367V48.3521L5.16947 48.2117L0.5 42.7517V9.51863L6.61627 2.3668H34.8925L41.1288 9.65895L41.2785 9.83398H41.5088H105.368H105.599L105.748 9.65895L109.59 5.16699H284.175H284.406L284.555 4.99196L288.397 0.5H355.787L363.5 9.51864V47.4187L360.427 51.0119L360.307 51.1523V51.3369V278.916L356.586 283.253H258.063L254.222 278.775L254.072 278.601H253.842H116.544H116.314L116.164 278.775L112.323 283.253H9.01053L5.28947 278.916V48.5367Z"
        fill="#03192E" stroke="#00539F" stroke-linecap="round" />
    <mask id="mask0_113_336094" style="mask-type:alpha" maskUnits="userSpaceOnUse" x="150" y="7"
        width="207" height="36">
        <rect x="150.868" y="7.46729" width="205.149" height="34.5357" fill="#03192E" />
    </mask>
    <g mask="url(#mask0_113_336094)">
        <rect width="364" height="37.3359" transform="translate(-8.7807 7.46729)" fill="#03192E" />
        <rect x="147.719" y="7.96729" width="4" height="4" stroke="#052C63" />
        <rect x="151.719" y="7.96729" width="4" height="4" stroke="#052C63" />
        <rect x="155.719" y="7.96729" width="4" height="4" stroke="#052C63" />
        <rect x="159.719" y="7.96729" width="4" height="4" stroke="#052C63" />
        <rect x="163.719" y="7.96729" width="4" height="4" stroke="#052C63" />
        <rect x="167.719" y="7.96729" width="4" height="4" stroke="#052C63" />
        <rect x="171.719" y="7.96729" width="4" height="4" stroke="#052C63" />
        <rect x="175.719" y="7.96729" width="4" height="4" stroke="#052C63" />
        <rect x="179.719" y="7.96729" width="4" height="4" stroke="#052C63" />
        <rect x="183.719" y="7.96729" width="4" height="4" stroke="#052C63" />
        <rect x="187.719" y="7.96729" width="4" height="4" stroke="#052C63" />
        <rect x="191.719" y="7.96729" width="4" height="4" stroke="#052C63" />
        <rect x="195.719" y="7.96729" width="4" height="4" stroke="#052C63" />
        <rect x="199.719" y="7.96729" width="4" height="4" stroke="#052C63" />
        <rect x="203.719" y="7.96729" width="4" height="4" stroke="#052C63" />
        <rect x="207.719" y="7.96729" width="4" height="4" stroke="#052C63" />
        <rect x="211.719" y="7.96729" width="4" height="4" stroke="#052C63" />
        <rect x="215.719" y="7.96729" width="4" height="4" stroke="#052C63" />
        <rect x="219.719" y="7.96729" width="4" height="4" stroke="#052C63" />
        <rect x="223.719" y="7.96729" width="4" height="4" stroke="#052C63" />
        <rect x="227.719" y="7.96729" width="4" height="4" stroke="#052C63" />
        <rect x="231.719" y="7.96729" width="4" height="4" stroke="#052C63" />
        <rect x="235.719" y="7.96729" width="4" height="4" stroke="#052C63" />
        <rect x="239.719" y="7.96729" width="4" height="4" stroke="#052C63" />
        <rect x="243.719" y="7.96729" width="4" height="4" stroke="#052C63" />
        <rect x="247.719" y="7.96729" width="4" height="4" stroke="#052C63" />
        <rect x="251.719" y="7.96729" width="4" height="4" stroke="#052C63" />
        <rect x="255.719" y="7.96729" width="4" height="4" stroke="#052C63" />
        <rect x="259.719" y="7.96729" width="4" height="4" stroke="#052C63" />
        <rect x="263.719" y="7.96729" width="4" height="4" stroke="#052C63" />
        <rect x="267.719" y="7.96729" width="4" height="4" stroke="#052C63" />
        <rect x="271.719" y="7.96729" width="4" height="4" stroke="#052C63" />
        <rect x="275.719" y="7.96729" width="4" height="4" stroke="#052C63" />
        <rect x="279.719" y="7.96729" width="4" height="4" stroke="#052C63" />
        <rect x="283.719" y="7.96729" width="4" height="4" stroke="#052C63" />
        <rect x="287.719" y="7.96729" width="4" height="4" stroke="#052C63" />
        <rect x="291.719" y="7.96729" width="4" height="4" stroke="#052C63" />
        <rect x="295.719" y="7.96729" width="4" height="4" stroke="#052C63" />
        <rect x="299.719" y="7.96729" width="4" height="4" stroke="#052C63" />
        <rect x="303.719" y="7.96729" width="4" height="4" stroke="#052C63" />
        <rect x="307.719" y="7.96729" width="4" height="4" stroke="#052C63" />
        <rect x="311.719" y="7.96729" width="4" height="4" stroke="#052C63" />
        <rect x="315.719" y="7.96729" width="4" height="4" stroke="#052C63" />
        <rect x="319.719" y="7.96729" width="4" height="4" stroke="#052C63" />
        <rect x="323.719" y="7.96729" width="4" height="4" stroke="#052C63" />
        <rect x="327.719" y="7.96729" width="4" height="4" stroke="#052C63" />
        <rect x="331.719" y="7.96729" width="4" height="4" stroke="#052C63" />
        <rect x="335.719" y="7.96729" width="4" height="4" stroke="#052C63" />
        <rect x="339.719" y="7.96729" width="4" height="4" stroke="#052C63" />
        <rect x="343.719" y="7.96729" width="4" height="4" stroke="#052C63" />
        <rect x="347.719" y="7.96729" width="4" height="4" stroke="#052C63" />
        <rect x="351.719" y="7.96729" width="4" height="4" stroke="#052C63" />
        <rect x="355.719" y="7.96729" width="4" height="4" stroke="#052C63" />
        <rect x="147.719" y="11.9673" width="4" height="4" stroke="#052C63" />
        <rect x="151.719" y="11.9673" width="4" height="4" stroke="#052C63" />
        <rect x="155.719" y="11.9673" width="4" height="4" stroke="#052C63" />
        <rect x="159.719" y="11.9673" width="4" height="4" stroke="#052C63" />
        <rect x="163.719" y="11.9673" width="4" height="4" stroke="#052C63" />
        <rect x="167.719" y="11.9673" width="4" height="4" stroke="#052C63" />
        <rect x="171.719" y="11.9673" width="4" height="4" stroke="#052C63" />
        <rect x="175.719" y="11.9673" width="4" height="4" stroke="#052C63" />
        <rect x="179.719" y="11.9673" width="4" height="4" stroke="#052C63" />
        <rect x="183.719" y="11.9673" width="4" height="4" stroke="#052C63" />
        <rect x="187.719" y="11.9673" width="4" height="4" stroke="#052C63" />
        <rect x="191.719" y="11.9673" width="4" height="4" stroke="#052C63" />
        <rect x="195.719" y="11.9673" width="4" height="4" stroke="#052C63" />
        <rect x="199.719" y="11.9673" width="4" height="4" stroke="#052C63" />
        <rect x="203.719" y="11.9673" width="4" height="4" stroke="#052C63" />
        <rect x="207.719" y="11.9673" width="4" height="4" stroke="#052C63" />
        <rect x="211.719" y="11.9673" width="4" height="4" stroke="#052C63" />
        <rect x="215.719" y="11.9673" width="4" height="4" stroke="#052C63" />
        <rect x="219.719" y="11.9673" width="4" height="4" stroke="#052C63" />
        <rect x="223.719" y="11.9673" width="4" height="4" stroke="#052C63" />
        <rect x="227.719" y="11.9673" width="4" height="4" stroke="#052C63" />
        <rect x="231.719" y="11.9673" width="4" height="4" stroke="#052C63" />
        <rect x="235.719" y="11.9673" width="4" height="4" stroke="#052C63" />
        <rect x="239.719" y="11.9673" width="4" height="4" stroke="#052C63" />
        <rect x="243.719" y="11.9673" width="4" height="4" stroke="#052C63" />
        <rect x="247.719" y="11.9673" width="4" height="4" stroke="#052C63" />
        <rect x="251.719" y="11.9673" width="4" height="4" stroke="#052C63" />
        <rect x="255.719" y="11.9673" width="4" height="4" stroke="#052C63" />
        <rect x="259.719" y="11.9673" width="4" height="4" stroke="#052C63" />
        <rect x="263.719" y="11.9673" width="4" height="4" stroke="#052C63" />
        <rect x="267.719" y="11.9673" width="4" height="4" stroke="#052C63" />
        <rect x="271.719" y="11.9673" width="4" height="4" stroke="#052C63" />
        <rect x="275.719" y="11.9673" width="4" height="4" stroke="#052C63" />
        <rect x="279.719" y="11.9673" width="4" height="4" stroke="#052C63" />
        <rect x="283.719" y="11.9673" width="4" height="4" stroke="#052C63" />
        <rect x="287.719" y="11.9673" width="4" height="4" stroke="#052C63" />
        <rect x="291.719" y="11.9673" width="4" height="4" stroke="#052C63" />
        <rect x="295.719" y="11.9673" width="4" height="4" stroke="#052C63" />
        <rect x="299.719" y="11.9673" width="4" height="4" stroke="#052C63" />
        <rect x="303.719" y="11.9673" width="4" height="4" stroke="#052C63" />
        <rect x="307.719" y="11.9673" width="4" height="4" stroke="#052C63" />
        <rect x="311.719" y="11.9673" width="4" height="4" stroke="#052C63" />
        <rect x="315.719" y="11.9673" width="4" height="4" stroke="#052C63" />
        <rect x="319.719" y="11.9673" width="4" height="4" stroke="#052C63" />
        <rect x="323.719" y="11.9673" width="4" height="4" stroke="#052C63" />
        <rect x="327.719" y="11.9673" width="4" height="4" stroke="#052C63" />
        <rect x="331.719" y="11.9673" width="4" height="4" stroke="#052C63" />
        <rect x="335.719" y="11.9673" width="4" height="4" stroke="#052C63" />
        <rect x="339.719" y="11.9673" width="4" height="4" stroke="#052C63" />
        <rect x="343.719" y="11.9673" width="4" height="4" stroke="#052C63" />
        <rect x="347.719" y="11.9673" width="4" height="4" stroke="#052C63" />
        <rect x="351.719" y="11.9673" width="4" height="4" stroke="#052C63" />
        <rect x="355.719" y="11.9673" width="4" height="4" stroke="#052C63" />
        <rect x="147.719" y="15.9673" width="4" height="4" stroke="#052C63" />
        <rect x="151.719" y="15.9673" width="4" height="4" stroke="#052C63" />
        <rect x="155.719" y="15.9673" width="4" height="4" stroke="#052C63" />
        <rect x="159.719" y="15.9673" width="4" height="4" stroke="#052C63" />
        <rect x="163.719" y="15.9673" width="4" height="4" stroke="#052C63" />
        <rect x="167.719" y="15.9673" width="4" height="4" stroke="#052C63" />
        <rect x="171.719" y="15.9673" width="4" height="4" stroke="#052C63" />
        <rect x="175.719" y="15.9673" width="4" height="4" stroke="#052C63" />
        <rect x="179.719" y="15.9673" width="4" height="4" stroke="#052C63" />
        <rect x="183.719" y="15.9673" width="4" height="4" stroke="#052C63" />
        <rect x="187.719" y="15.9673" width="4" height="4" stroke="#052C63" />
        <rect x="191.719" y="15.9673" width="4" height="4" stroke="#052C63" />
        <rect x="195.719" y="15.9673" width="4" height="4" stroke="#052C63" />
        <rect x="199.719" y="15.9673" width="4" height="4" stroke="#052C63" />
        <rect x="203.719" y="15.9673" width="4" height="4" stroke="#052C63" />
        <rect x="207.719" y="15.9673" width="4" height="4" stroke="#052C63" />
        <rect x="211.719" y="15.9673" width="4" height="4" stroke="#052C63" />
        <rect x="215.719" y="15.9673" width="4" height="4" stroke="#052C63" />
        <rect x="219.719" y="15.9673" width="4" height="4" stroke="#052C63" />
        <rect x="223.719" y="15.9673" width="4" height="4" stroke="#052C63" />
        <rect x="227.719" y="15.9673" width="4" height="4" stroke="#052C63" />
        <rect x="231.719" y="15.9673" width="4" height="4" stroke="#052C63" />
        <rect x="235.719" y="15.9673" width="4" height="4" stroke="#052C63" />
        <rect x="239.719" y="15.9673" width="4" height="4" stroke="#052C63" />
        <rect x="243.719" y="15.9673" width="4" height="4" stroke="#052C63" />
        <rect x="247.719" y="15.9673" width="4" height="4" stroke="#052C63" />
        <rect x="251.719" y="15.9673" width="4" height="4" stroke="#052C63" />
        <rect x="255.719" y="15.9673" width="4" height="4" stroke="#052C63" />
        <rect x="259.719" y="15.9673" width="4" height="4" stroke="#052C63" />
        <rect x="263.719" y="15.9673" width="4" height="4" stroke="#052C63" />
        <rect x="267.719" y="15.9673" width="4" height="4" stroke="#052C63" />
        <rect x="271.719" y="15.9673" width="4" height="4" stroke="#052C63" />
        <rect x="275.719" y="15.9673" width="4" height="4" stroke="#052C63" />
        <rect x="279.719" y="15.9673" width="4" height="4" stroke="#052C63" />
        <rect x="283.719" y="15.9673" width="4" height="4" stroke="#052C63" />
        <rect x="287.719" y="15.9673" width="4" height="4" stroke="#052C63" />
        <rect x="291.719" y="15.9673" width="4" height="4" stroke="#052C63" />
        <rect x="295.719" y="15.9673" width="4" height="4" stroke="#052C63" />
        <rect x="299.719" y="15.9673" width="4" height="4" stroke="#052C63" />
        <rect x="303.719" y="15.9673" width="4" height="4" stroke="#052C63" />
        <rect x="307.719" y="15.9673" width="4" height="4" stroke="#052C63" />
        <rect x="311.719" y="15.9673" width="4" height="4" stroke="#052C63" />
        <rect x="315.719" y="15.9673" width="4" height="4" stroke="#052C63" />
        <rect x="319.719" y="15.9673" width="4" height="4" stroke="#052C63" />
        <rect x="323.719" y="15.9673" width="4" height="4" stroke="#052C63" />
        <rect x="327.719" y="15.9673" width="4" height="4" stroke="#052C63" />
        <rect x="331.719" y="15.9673" width="4" height="4" stroke="#052C63" />
        <rect x="335.719" y="15.9673" width="4" height="4" stroke="#052C63" />
        <rect x="339.719" y="15.9673" width="4" height="4" stroke="#052C63" />
        <rect x="343.719" y="15.9673" width="4" height="4" stroke="#052C63" />
        <rect x="347.719" y="15.9673" width="4" height="4" stroke="#052C63" />
        <rect x="351.719" y="15.9673" width="4" height="4" stroke="#052C63" />
        <rect x="355.719" y="15.9673" width="4" height="4" stroke="#052C63" />
        <rect x="147.719" y="19.9673" width="4" height="4" stroke="#052C63" />
        <rect x="151.719" y="19.9673" width="4" height="4" stroke="#052C63" />
        <rect x="155.719" y="19.9673" width="4" height="4" stroke="#052C63" />
        <rect x="159.719" y="19.9673" width="4" height="4" stroke="#052C63" />
        <rect x="163.719" y="19.9673" width="4" height="4" stroke="#052C63" />
        <rect x="167.719" y="19.9673" width="4" height="4" stroke="#052C63" />
        <rect x="171.719" y="19.9673" width="4" height="4" stroke="#052C63" />
        <rect x="175.719" y="19.9673" width="4" height="4" stroke="#052C63" />
        <rect x="179.719" y="19.9673" width="4" height="4" stroke="#052C63" />
        <rect x="183.719" y="19.9673" width="4" height="4" stroke="#052C63" />
        <rect x="187.719" y="19.9673" width="4" height="4" stroke="#052C63" />
        <rect x="191.719" y="19.9673" width="4" height="4" stroke="#052C63" />
        <rect x="195.719" y="19.9673" width="4" height="4" stroke="#052C63" />
        <rect x="199.719" y="19.9673" width="4" height="4" stroke="#052C63" />
        <rect x="203.719" y="19.9673" width="4" height="4" stroke="#052C63" />
        <rect x="207.719" y="19.9673" width="4" height="4" stroke="#052C63" />
        <rect x="211.719" y="19.9673" width="4" height="4" stroke="#052C63" />
        <rect x="215.719" y="19.9673" width="4" height="4" stroke="#052C63" />
        <rect x="219.719" y="19.9673" width="4" height="4" stroke="#052C63" />
        <rect x="223.719" y="19.9673" width="4" height="4" stroke="#052C63" />
        <rect x="227.719" y="19.9673" width="4" height="4" stroke="#052C63" />
        <rect x="231.719" y="19.9673" width="4" height="4" stroke="#052C63" />
        <rect x="235.719" y="19.9673" width="4" height="4" stroke="#052C63" />
        <rect x="239.719" y="19.9673" width="4" height="4" stroke="#052C63" />
        <rect x="243.719" y="19.9673" width="4" height="4" stroke="#052C63" />
        <rect x="247.719" y="19.9673" width="4" height="4" stroke="#052C63" />
        <rect x="251.719" y="19.9673" width="4" height="4" stroke="#052C63" />
        <rect x="255.719" y="19.9673" width="4" height="4" stroke="#052C63" />
        <rect x="259.719" y="19.9673" width="4" height="4" stroke="#052C63" />
        <rect x="263.719" y="19.9673" width="4" height="4" stroke="#052C63" />
        <rect x="267.719" y="19.9673" width="4" height="4" stroke="#052C63" />
        <rect x="271.719" y="19.9673" width="4" height="4" stroke="#052C63" />
        <rect x="275.719" y="19.9673" width="4" height="4" stroke="#052C63" />
        <rect x="279.719" y="19.9673" width="4" height="4" stroke="#052C63" />
        <rect x="283.719" y="19.9673" width="4" height="4" stroke="#052C63" />
        <rect x="287.719" y="19.9673" width="4" height="4" stroke="#052C63" />
        <rect x="291.719" y="19.9673" width="4" height="4" stroke="#052C63" />
        <rect x="295.719" y="19.9673" width="4" height="4" stroke="#052C63" />
        <rect x="299.719" y="19.9673" width="4" height="4" stroke="#052C63" />
        <rect x="303.719" y="19.9673" width="4" height="4" stroke="#052C63" />
        <rect x="307.719" y="19.9673" width="4" height="4" stroke="#052C63" />
        <rect x="311.719" y="19.9673" width="4" height="4" stroke="#052C63" />
        <rect x="315.719" y="19.9673" width="4" height="4" stroke="#052C63" />
        <rect x="319.719" y="19.9673" width="4" height="4" stroke="#052C63" />
        <rect x="323.719" y="19.9673" width="4" height="4" stroke="#052C63" />
        <rect x="327.719" y="19.9673" width="4" height="4" stroke="#052C63" />
        <rect x="331.719" y="19.9673" width="4" height="4" stroke="#052C63" />
        <rect x="335.719" y="19.9673" width="4" height="4" stroke="#052C63" />
        <rect x="339.719" y="19.9673" width="4" height="4" stroke="#052C63" />
        <rect x="343.719" y="19.9673" width="4" height="4" stroke="#052C63" />
        <rect x="347.719" y="19.9673" width="4" height="4" stroke="#052C63" />
        <rect x="351.719" y="19.9673" width="4" height="4" stroke="#052C63" />
        <rect x="355.719" y="19.9673" width="4" height="4" stroke="#052C63" />
        <rect x="147.719" y="23.9673" width="4" height="4" stroke="#052C63" />
        <rect x="151.719" y="23.9673" width="4" height="4" stroke="#052C63" />
        <rect x="155.719" y="23.9673" width="4" height="4" stroke="#052C63" />
        <rect x="159.719" y="23.9673" width="4" height="4" stroke="#052C63" />
        <rect x="163.719" y="23.9673" width="4" height="4" stroke="#052C63" />
        <rect x="167.719" y="23.9673" width="4" height="4" stroke="#052C63" />
        <rect x="171.719" y="23.9673" width="4" height="4" stroke="#052C63" />
        <rect x="175.719" y="23.9673" width="4" height="4" stroke="#052C63" />
        <rect x="179.719" y="23.9673" width="4" height="4" stroke="#052C63" />
        <rect x="183.719" y="23.9673" width="4" height="4" stroke="#052C63" />
        <rect x="187.719" y="23.9673" width="4" height="4" stroke="#052C63" />
        <rect x="191.719" y="23.9673" width="4" height="4" stroke="#052C63" />
        <rect x="195.719" y="23.9673" width="4" height="4" stroke="#052C63" />
        <rect x="199.719" y="23.9673" width="4" height="4" stroke="#052C63" />
        <rect x="203.719" y="23.9673" width="4" height="4" stroke="#052C63" />
        <rect x="207.719" y="23.9673" width="4" height="4" stroke="#052C63" />
        <rect x="211.719" y="23.9673" width="4" height="4" stroke="#052C63" />
        <rect x="215.719" y="23.9673" width="4" height="4" stroke="#052C63" />
        <rect x="219.719" y="23.9673" width="4" height="4" stroke="#052C63" />
        <rect x="223.719" y="23.9673" width="4" height="4" stroke="#052C63" />
        <rect x="227.719" y="23.9673" width="4" height="4" stroke="#052C63" />
        <rect x="231.719" y="23.9673" width="4" height="4" stroke="#052C63" />
        <rect x="235.719" y="23.9673" width="4" height="4" stroke="#052C63" />
        <rect x="239.719" y="23.9673" width="4" height="4" stroke="#052C63" />
        <rect x="243.719" y="23.9673" width="4" height="4" stroke="#052C63" />
        <rect x="247.719" y="23.9673" width="4" height="4" stroke="#052C63" />
        <rect x="251.719" y="23.9673" width="4" height="4" stroke="#052C63" />
        <rect x="255.719" y="23.9673" width="4" height="4" stroke="#052C63" />
        <rect x="259.719" y="23.9673" width="4" height="4" stroke="#052C63" />
        <rect x="263.719" y="23.9673" width="4" height="4" stroke="#052C63" />
        <rect x="267.719" y="23.9673" width="4" height="4" stroke="#052C63" />
        <rect x="271.719" y="23.9673" width="4" height="4" stroke="#052C63" />
        <rect x="275.719" y="23.9673" width="4" height="4" stroke="#052C63" />
        <rect x="279.719" y="23.9673" width="4" height="4" stroke="#052C63" />
        <rect x="283.719" y="23.9673" width="4" height="4" stroke="#052C63" />
        <rect x="287.719" y="23.9673" width="4" height="4" stroke="#052C63" />
        <rect x="291.719" y="23.9673" width="4" height="4" stroke="#052C63" />
        <rect x="295.719" y="23.9673" width="4" height="4" stroke="#052C63" />
        <rect x="299.719" y="23.9673" width="4" height="4" stroke="#052C63" />
        <rect x="303.719" y="23.9673" width="4" height="4" stroke="#052C63" />
        <rect x="307.719" y="23.9673" width="4" height="4" stroke="#052C63" />
        <rect x="311.719" y="23.9673" width="4" height="4" stroke="#052C63" />
        <rect x="315.719" y="23.9673" width="4" height="4" stroke="#052C63" />
        <rect x="319.719" y="23.9673" width="4" height="4" stroke="#052C63" />
        <rect x="323.719" y="23.9673" width="4" height="4" stroke="#052C63" />
        <rect x="327.719" y="23.9673" width="4" height="4" stroke="#052C63" />
        <rect x="331.719" y="23.9673" width="4" height="4" stroke="#052C63" />
        <rect x="335.719" y="23.9673" width="4" height="4" stroke="#052C63" />
        <rect x="339.719" y="23.9673" width="4" height="4" stroke="#052C63" />
        <rect x="343.719" y="23.9673" width="4" height="4" stroke="#052C63" />
        <rect x="347.719" y="23.9673" width="4" height="4" stroke="#052C63" />
        <rect x="351.719" y="23.9673" width="4" height="4" stroke="#052C63" />
        <rect x="355.719" y="23.9673" width="4" height="4" stroke="#052C63" />
        <rect x="147.719" y="27.9673" width="4" height="4" stroke="#052C63" />
        <rect x="151.719" y="27.9673" width="4" height="4" stroke="#052C63" />
        <rect x="155.719" y="27.9673" width="4" height="4" stroke="#052C63" />
        <rect x="159.719" y="27.9673" width="4" height="4" stroke="#052C63" />
        <rect x="163.719" y="27.9673" width="4" height="4" stroke="#052C63" />
        <rect x="167.719" y="27.9673" width="4" height="4" stroke="#052C63" />
        <rect x="171.719" y="27.9673" width="4" height="4" stroke="#052C63" />
        <rect x="175.719" y="27.9673" width="4" height="4" stroke="#052C63" />
        <rect x="179.719" y="27.9673" width="4" height="4" stroke="#052C63" />
        <rect x="183.719" y="27.9673" width="4" height="4" stroke="#052C63" />
        <rect x="187.719" y="27.9673" width="4" height="4" stroke="#052C63" />
        <rect x="191.719" y="27.9673" width="4" height="4" stroke="#052C63" />
        <rect x="195.719" y="27.9673" width="4" height="4" stroke="#052C63" />
        <rect x="199.719" y="27.9673" width="4" height="4" stroke="#052C63" />
        <rect x="203.719" y="27.9673" width="4" height="4" stroke="#052C63" />
        <rect x="207.719" y="27.9673" width="4" height="4" stroke="#052C63" />
        <rect x="211.719" y="27.9673" width="4" height="4" stroke="#052C63" />
        <rect x="215.719" y="27.9673" width="4" height="4" stroke="#052C63" />
        <rect x="219.719" y="27.9673" width="4" height="4" stroke="#052C63" />
        <rect x="223.719" y="27.9673" width="4" height="4" stroke="#052C63" />
        <rect x="227.719" y="27.9673" width="4" height="4" stroke="#052C63" />
        <rect x="231.719" y="27.9673" width="4" height="4" stroke="#052C63" />
        <rect x="235.719" y="27.9673" width="4" height="4" stroke="#052C63" />
        <rect x="239.719" y="27.9673" width="4" height="4" stroke="#052C63" />
        <rect x="243.719" y="27.9673" width="4" height="4" stroke="#052C63" />
        <rect x="247.719" y="27.9673" width="4" height="4" stroke="#052C63" />
        <rect x="251.719" y="27.9673" width="4" height="4" stroke="#052C63" />
        <rect x="255.719" y="27.9673" width="4" height="4" stroke="#052C63" />
        <rect x="259.719" y="27.9673" width="4" height="4" stroke="#052C63" />
        <rect x="263.719" y="27.9673" width="4" height="4" stroke="#052C63" />
        <rect x="267.719" y="27.9673" width="4" height="4" stroke="#052C63" />
        <rect x="271.719" y="27.9673" width="4" height="4" stroke="#052C63" />
        <rect x="275.719" y="27.9673" width="4" height="4" stroke="#052C63" />
        <rect x="279.719" y="27.9673" width="4" height="4" stroke="#052C63" />
        <rect x="283.719" y="27.9673" width="4" height="4" stroke="#052C63" />
        <rect x="287.719" y="27.9673" width="4" height="4" stroke="#052C63" />
        <rect x="291.719" y="27.9673" width="4" height="4" stroke="#052C63" />
        <rect x="295.719" y="27.9673" width="4" height="4" stroke="#052C63" />
        <rect x="299.719" y="27.9673" width="4" height="4" stroke="#052C63" />
        <rect x="303.719" y="27.9673" width="4" height="4" stroke="#052C63" />
        <rect x="307.719" y="27.9673" width="4" height="4" stroke="#052C63" />
        <rect x="311.719" y="27.9673" width="4" height="4" stroke="#052C63" />
        <rect x="315.719" y="27.9673" width="4" height="4" stroke="#052C63" />
        <rect x="319.719" y="27.9673" width="4" height="4" stroke="#052C63" />
        <rect x="323.719" y="27.9673" width="4" height="4" stroke="#052C63" />
        <rect x="327.719" y="27.9673" width="4" height="4" stroke="#052C63" />
        <rect x="331.719" y="27.9673" width="4" height="4" stroke="#052C63" />
        <rect x="335.719" y="27.9673" width="4" height="4" stroke="#052C63" />
        <rect x="339.719" y="27.9673" width="4" height="4" stroke="#052C63" />
        <rect x="343.719" y="27.9673" width="4" height="4" stroke="#052C63" />
        <rect x="347.719" y="27.9673" width="4" height="4" stroke="#052C63" />
        <rect x="351.719" y="27.9673" width="4" height="4" stroke="#052C63" />
        <rect x="355.719" y="27.9673" width="4" height="4" stroke="#052C63" />
        <rect x="147.719" y="31.9673" width="4" height="4" stroke="#052C63" />
        <rect x="151.719" y="31.9673" width="4" height="4" stroke="#052C63" />
        <rect x="155.719" y="31.9673" width="4" height="4" stroke="#052C63" />
        <rect x="159.719" y="31.9673" width="4" height="4" stroke="#052C63" />
        <rect x="163.719" y="31.9673" width="4" height="4" stroke="#052C63" />
        <rect x="167.719" y="31.9673" width="4" height="4" stroke="#052C63" />
        <rect x="171.719" y="31.9673" width="4" height="4" stroke="#052C63" />
        <rect x="175.719" y="31.9673" width="4" height="4" stroke="#052C63" />
        <rect x="179.719" y="31.9673" width="4" height="4" stroke="#052C63" />
        <rect x="183.719" y="31.9673" width="4" height="4" stroke="#052C63" />
        <rect x="187.719" y="31.9673" width="4" height="4" stroke="#052C63" />
        <rect x="191.719" y="31.9673" width="4" height="4" stroke="#052C63" />
        <rect x="195.719" y="31.9673" width="4" height="4" stroke="#052C63" />
        <rect x="199.719" y="31.9673" width="4" height="4" stroke="#052C63" />
        <rect x="203.719" y="31.9673" width="4" height="4" stroke="#052C63" />
        <rect x="207.719" y="31.9673" width="4" height="4" stroke="#052C63" />
        <rect x="211.719" y="31.9673" width="4" height="4" stroke="#052C63" />
        <rect x="215.719" y="31.9673" width="4" height="4" stroke="#052C63" />
        <rect x="219.719" y="31.9673" width="4" height="4" stroke="#052C63" />
        <rect x="223.719" y="31.9673" width="4" height="4" stroke="#052C63" />
        <rect x="227.719" y="31.9673" width="4" height="4" stroke="#052C63" />
        <rect x="231.719" y="31.9673" width="4" height="4" stroke="#052C63" />
        <rect x="235.719" y="31.9673" width="4" height="4" stroke="#052C63" />
        <rect x="239.719" y="31.9673" width="4" height="4" stroke="#052C63" />
        <rect x="243.719" y="31.9673" width="4" height="4" stroke="#052C63" />
        <rect x="247.719" y="31.9673" width="4" height="4" stroke="#052C63" />
        <rect x="251.719" y="31.9673" width="4" height="4" stroke="#052C63" />
        <rect x="255.719" y="31.9673" width="4" height="4" stroke="#052C63" />
        <rect x="259.719" y="31.9673" width="4" height="4" stroke="#052C63" />
        <rect x="263.719" y="31.9673" width="4" height="4" stroke="#052C63" />
        <rect x="267.719" y="31.9673" width="4" height="4" stroke="#052C63" />
        <rect x="271.719" y="31.9673" width="4" height="4" stroke="#052C63" />
        <rect x="275.719" y="31.9673" width="4" height="4" stroke="#052C63" />
        <rect x="279.719" y="31.9673" width="4" height="4" stroke="#052C63" />
        <rect x="283.719" y="31.9673" width="4" height="4" stroke="#052C63" />
        <rect x="287.719" y="31.9673" width="4" height="4" stroke="#052C63" />
        <rect x="291.719" y="31.9673" width="4" height="4" stroke="#052C63" />
        <rect x="295.719" y="31.9673" width="4" height="4" stroke="#052C63" />
        <rect x="299.719" y="31.9673" width="4" height="4" stroke="#052C63" />
        <rect x="303.719" y="31.9673" width="4" height="4" stroke="#052C63" />
        <rect x="307.719" y="31.9673" width="4" height="4" stroke="#052C63" />
        <rect x="311.719" y="31.9673" width="4" height="4" stroke="#052C63" />
        <rect x="315.719" y="31.9673" width="4" height="4" stroke="#052C63" />
        <rect x="319.719" y="31.9673" width="4" height="4" stroke="#052C63" />
        <rect x="323.719" y="31.9673" width="4" height="4" stroke="#052C63" />
        <rect x="327.719" y="31.9673" width="4" height="4" stroke="#052C63" />
        <rect x="331.719" y="31.9673" width="4" height="4" stroke="#052C63" />
        <rect x="335.719" y="31.9673" width="4" height="4" stroke="#052C63" />
        <rect x="339.719" y="31.9673" width="4" height="4" stroke="#052C63" />
        <rect x="343.719" y="31.9673" width="4" height="4" stroke="#052C63" />
        <rect x="347.719" y="31.9673" width="4" height="4" stroke="#052C63" />
        <rect x="351.719" y="31.9673" width="4" height="4" stroke="#052C63" />
        <rect x="355.719" y="31.9673" width="4" height="4" stroke="#052C63" />
        <rect x="147.719" y="35.9673" width="4" height="4" stroke="#052C63" />
        <rect x="151.719" y="35.9673" width="4" height="4" stroke="#052C63" />
        <rect x="155.719" y="35.9673" width="4" height="4" stroke="#052C63" />
        <rect x="159.719" y="35.9673" width="4" height="4" stroke="#052C63" />
        <rect x="163.719" y="35.9673" width="4" height="4" stroke="#052C63" />
        <rect x="167.719" y="35.9673" width="4" height="4" stroke="#052C63" />
        <rect x="171.719" y="35.9673" width="4" height="4" stroke="#052C63" />
        <rect x="175.719" y="35.9673" width="4" height="4" stroke="#052C63" />
        <rect x="179.719" y="35.9673" width="4" height="4" stroke="#052C63" />
        <rect x="183.719" y="35.9673" width="4" height="4" stroke="#052C63" />
        <rect x="187.719" y="35.9673" width="4" height="4" stroke="#052C63" />
        <rect x="191.719" y="35.9673" width="4" height="4" stroke="#052C63" />
        <rect x="195.719" y="35.9673" width="4" height="4" stroke="#052C63" />
        <rect x="199.719" y="35.9673" width="4" height="4" stroke="#052C63" />
        <rect x="203.719" y="35.9673" width="4" height="4" stroke="#052C63" />
        <rect x="207.719" y="35.9673" width="4" height="4" stroke="#052C63" />
        <rect x="211.719" y="35.9673" width="4" height="4" stroke="#052C63" />
        <rect x="215.719" y="35.9673" width="4" height="4" stroke="#052C63" />
        <rect x="219.719" y="35.9673" width="4" height="4" stroke="#052C63" />
        <rect x="223.719" y="35.9673" width="4" height="4" stroke="#052C63" />
        <rect x="227.719" y="35.9673" width="4" height="4" stroke="#052C63" />
        <rect x="231.719" y="35.9673" width="4" height="4" stroke="#052C63" />
        <rect x="235.719" y="35.9673" width="4" height="4" stroke="#052C63" />
        <rect x="239.719" y="35.9673" width="4" height="4" stroke="#052C63" />
        <rect x="243.719" y="35.9673" width="4" height="4" stroke="#052C63" />
        <rect x="247.719" y="35.9673" width="4" height="4" stroke="#052C63" />
        <rect x="251.719" y="35.9673" width="4" height="4" stroke="#052C63" />
        <rect x="255.719" y="35.9673" width="4" height="4" stroke="#052C63" />
        <rect x="259.719" y="35.9673" width="4" height="4" stroke="#052C63" />
        <rect x="263.719" y="35.9673" width="4" height="4" stroke="#052C63" />
        <rect x="267.719" y="35.9673" width="4" height="4" stroke="#052C63" />
        <rect x="271.719" y="35.9673" width="4" height="4" stroke="#052C63" />
        <rect x="275.719" y="35.9673" width="4" height="4" stroke="#052C63" />
        <rect x="279.719" y="35.9673" width="4" height="4" stroke="#052C63" />
        <rect x="283.719" y="35.9673" width="4" height="4" stroke="#052C63" />
        <rect x="287.719" y="35.9673" width="4" height="4" stroke="#052C63" />
        <rect x="291.719" y="35.9673" width="4" height="4" stroke="#052C63" />
        <rect x="295.719" y="35.9673" width="4" height="4" stroke="#052C63" />
        <rect x="299.719" y="35.9673" width="4" height="4" stroke="#052C63" />
        <rect x="303.719" y="35.9673" width="4" height="4" stroke="#052C63" />
        <rect x="307.719" y="35.9673" width="4" height="4" stroke="#052C63" />
        <rect x="311.719" y="35.9673" width="4" height="4" stroke="#052C63" />
        <rect x="315.719" y="35.9673" width="4" height="4" stroke="#052C63" />
        <rect x="319.719" y="35.9673" width="4" height="4" stroke="#052C63" />
        <rect x="323.719" y="35.9673" width="4" height="4" stroke="#052C63" />
        <rect x="327.719" y="35.9673" width="4" height="4" stroke="#052C63" />
        <rect x="331.719" y="35.9673" width="4" height="4" stroke="#052C63" />
        <rect x="335.719" y="35.9673" width="4" height="4" stroke="#052C63" />
        <rect x="339.719" y="35.9673" width="4" height="4" stroke="#052C63" />
        <rect x="343.719" y="35.9673" width="4" height="4" stroke="#052C63" />
        <rect x="347.719" y="35.9673" width="4" height="4" stroke="#052C63" />
        <rect x="351.719" y="35.9673" width="4" height="4" stroke="#052C63" />
        <rect x="355.719" y="35.9673" width="4" height="4" stroke="#052C63" />
        <rect x="147.719" y="39.9673" width="4" height="4" stroke="#052C63" />
        <rect x="151.719" y="39.9673" width="4" height="4" stroke="#052C63" />
        <rect x="155.719" y="39.9673" width="4" height="4" stroke="#052C63" />
        <rect x="159.719" y="39.9673" width="4" height="4" stroke="#052C63" />
        <rect x="163.719" y="39.9673" width="4" height="4" stroke="#052C63" />
        <rect x="167.719" y="39.9673" width="4" height="4" stroke="#052C63" />
        <rect x="171.719" y="39.9673" width="4" height="4" stroke="#052C63" />
        <rect x="175.719" y="39.9673" width="4" height="4" stroke="#052C63" />
        <rect x="179.719" y="39.9673" width="4" height="4" stroke="#052C63" />
        <rect x="183.719" y="39.9673" width="4" height="4" stroke="#052C63" />
        <rect x="187.719" y="39.9673" width="4" height="4" stroke="#052C63" />
        <rect x="191.719" y="39.9673" width="4" height="4" stroke="#052C63" />
        <rect x="195.719" y="39.9673" width="4" height="4" stroke="#052C63" />
        <rect x="199.719" y="39.9673" width="4" height="4" stroke="#052C63" />
        <rect x="203.719" y="39.9673" width="4" height="4" stroke="#052C63" />
        <rect x="207.719" y="39.9673" width="4" height="4" stroke="#052C63" />
        <rect x="211.719" y="39.9673" width="4" height="4" stroke="#052C63" />
        <rect x="215.719" y="39.9673" width="4" height="4" stroke="#052C63" />
        <rect x="219.719" y="39.9673" width="4" height="4" stroke="#052C63" />
        <rect x="223.719" y="39.9673" width="4" height="4" stroke="#052C63" />
        <rect x="227.719" y="39.9673" width="4" height="4" stroke="#052C63" />
        <rect x="231.719" y="39.9673" width="4" height="4" stroke="#052C63" />
        <rect x="235.719" y="39.9673" width="4" height="4" stroke="#052C63" />
        <rect x="239.719" y="39.9673" width="4" height="4" stroke="#052C63" />
        <rect x="243.719" y="39.9673" width="4" height="4" stroke="#052C63" />
        <rect x="247.719" y="39.9673" width="4" height="4" stroke="#052C63" />
        <rect x="251.719" y="39.9673" width="4" height="4" stroke="#052C63" />
        <rect x="255.719" y="39.9673" width="4" height="4" stroke="#052C63" />
        <rect x="259.719" y="39.9673" width="4" height="4" stroke="#052C63" />
        <rect x="263.719" y="39.9673" width="4" height="4" stroke="#052C63" />
        <rect x="267.719" y="39.9673" width="4" height="4" stroke="#052C63" />
        <rect x="271.719" y="39.9673" width="4" height="4" stroke="#052C63" />
        <rect x="275.719" y="39.9673" width="4" height="4" stroke="#052C63" />
        <rect x="279.719" y="39.9673" width="4" height="4" stroke="#052C63" />
        <rect x="283.719" y="39.9673" width="4" height="4" stroke="#052C63" />
        <rect x="287.719" y="39.9673" width="4" height="4" stroke="#052C63" />
        <rect x="291.719" y="39.9673" width="4" height="4" stroke="#052C63" />
        <rect x="295.719" y="39.9673" width="4" height="4" stroke="#052C63" />
        <rect x="299.719" y="39.9673" width="4" height="4" stroke="#052C63" />
        <rect x="303.719" y="39.9673" width="4" height="4" stroke="#052C63" />
        <rect x="307.719" y="39.9673" width="4" height="4" stroke="#052C63" />
        <rect x="311.719" y="39.9673" width="4" height="4" stroke="#052C63" />
        <rect x="315.719" y="39.9673" width="4" height="4" stroke="#052C63" />
        <rect x="319.719" y="39.9673" width="4" height="4" stroke="#052C63" />
        <rect x="323.719" y="39.9673" width="4" height="4" stroke="#052C63" />
        <rect x="327.719" y="39.9673" width="4" height="4" stroke="#052C63" />
        <rect x="331.719" y="39.9673" width="4" height="4" stroke="#052C63" />
        <rect x="335.719" y="39.9673" width="4" height="4" stroke="#052C63" />
        <rect x="339.719" y="39.9673" width="4" height="4" stroke="#052C63" />
        <rect x="343.719" y="39.9673" width="4" height="4" stroke="#052C63" />
        <rect x="347.719" y="39.9673" width="4" height="4" stroke="#052C63" />
        <rect x="351.719" y="39.9673" width="4" height="4" stroke="#052C63" />
        <rect x="355.719" y="39.9673" width="4" height="4" stroke="#052C63" />
    </g>
    <path d="M284.575 5.13379H355.219L359.61 10.7342V41.0696L356.417 44.3365H147.675"
        stroke="#00539F" />
    <path fill-rule="evenodd" clip-rule="evenodd"
        d="M290.561 1.8667H291.36L289.763 3.7335H288.965L290.561 1.8667ZM292.956 1.8667H293.754L292.158 3.7335H291.36L292.956 1.8667ZM296.149 1.8667H295.351L293.754 3.7335H294.553L296.149 1.8667ZM297.746 1.8667H298.544L296.947 3.7335H296.149L297.746 1.8667ZM300.939 1.8667H300.14L298.544 3.7335H299.342L300.939 1.8667ZM302.535 1.8667H303.333L301.737 3.7335H300.939L302.535 1.8667ZM305.728 1.8667H304.93L303.333 3.7335H304.132L305.728 1.8667ZM307.325 1.8667H308.123L306.526 3.7335H305.728L307.325 1.8667ZM310.518 1.8667H309.719L308.123 3.7335H308.921L310.518 1.8667Z"
        fill="#03192E" />
    <path d="M189.184 44.3364L185.991 48.07H77.4298" stroke="#00539F" />
    <ellipse cx="148.075" cy="44.3366" rx="1.19737" ry="1.4001" fill="#03192E" />
    <ellipse cx="77.829" cy="48.07" rx="1.19737" ry="1.4001" fill="#03192E" />
    <path d="M43.9035 7.46709L39.114 1.8667H60.6666V7.46709H43.9035Z" fill="#03192E" />
    <path d="M62.2632 7.46709V1.8667H68.6491L73.4386 7.46709H62.2632Z" fill="#03192E" />
    <rect width="37" height="36" transform="translate(7 7)" fill="#03192E" />
    <path
        d="M7.5 37.3889V12.6111L12.7531 7.5H38.2469L43.5 12.6111V37.3889L38.2469 42.5H12.7531L7.5 37.3889Z"
        fill="#001A41" stroke="url(#paint0_linear_113_336094)" />
    <mask id="mask1_113_336094" style="mask-type:alpha" maskUnits="userSpaceOnUse" x="8" y="8"
        width="35" height="34">
        <path
            d="M9.09998 36.5942V13.4054L13.5765 9.0498H37.4234L41.9 13.4054V36.5942L37.4234 40.9498H13.5765L9.09998 36.5942Z"
            fill="#00194A" stroke="#013C94" stroke-width="0.5" />
    </mask>
    <g mask="url(#mask1_113_336094)">
        <rect x="9.34998" y="8.3999" width="4" height="4" stroke="#032565" />
        <rect x="13.35" y="8.3999" width="4" height="4" stroke="#032565" />
        <rect x="17.35" y="8.3999" width="4" height="4" stroke="#032565" />
        <rect x="21.35" y="8.3999" width="4" height="4" stroke="#032565" />
        <rect x="25.35" y="8.3999" width="4" height="4" stroke="#032565" />
        <rect x="29.35" y="8.3999" width="4" height="4" stroke="#032565" />
        <rect x="33.35" y="8.3999" width="4" height="4" stroke="#032565" />
        <rect x="37.35" y="8.3999" width="4" height="4" stroke="#032565" />
        <rect x="41.35" y="8.3999" width="4" height="4" stroke="#032565" />
        <rect x="9.34998" y="12.3999" width="4" height="4" stroke="#052C63" />
        <rect x="13.35" y="12.3999" width="4" height="4" stroke="#052C63" />
        <rect x="17.35" y="12.3999" width="4" height="4" stroke="#052C63" />
        <rect x="21.35" y="12.3999" width="4" height="4" stroke="#052C63" />
        <rect x="25.35" y="12.3999" width="4" height="4" stroke="#052C63" />
        <rect x="29.35" y="12.3999" width="4" height="4" stroke="#052C63" />
        <rect x="33.35" y="12.3999" width="4" height="4" stroke="#052C63" />
        <rect x="37.35" y="12.3999" width="4" height="4" stroke="#052C63" />
        <rect x="41.35" y="12.3999" width="4" height="4" stroke="#052C63" />
        <rect x="9.34998" y="16.3999" width="4" height="4" stroke="#052C63" />
        <rect x="13.35" y="16.3999" width="4" height="4" stroke="#052C63" />
        <rect x="17.35" y="16.3999" width="4" height="4" stroke="#052C63" />
        <rect x="21.35" y="16.3999" width="4" height="4" stroke="#052C63" />
        <rect x="25.35" y="16.3999" width="4" height="4" stroke="#052C63" />
        <rect x="29.35" y="16.3999" width="4" height="4" stroke="#052C63" />
        <rect x="33.35" y="16.3999" width="4" height="4" stroke="#052C63" />
        <rect x="37.35" y="16.3999" width="4" height="4" stroke="#052C63" />
        <rect x="41.35" y="16.3999" width="4" height="4" stroke="#052C63" />
        <rect x="9.34998" y="20.3999" width="4" height="4" stroke="#052C63" />
        <rect x="13.35" y="20.3999" width="4" height="4" stroke="#052C63" />
        <rect x="17.35" y="20.3999" width="4" height="4" stroke="#052C63" />
        <rect x="21.35" y="20.3999" width="4" height="4" stroke="#052C63" />
        <rect x="25.35" y="20.3999" width="4" height="4" stroke="#052C63" />
        <rect x="29.35" y="20.3999" width="4" height="4" stroke="#052C63" />
        <rect x="33.35" y="20.3999" width="4" height="4" stroke="#052C63" />
        <rect x="37.35" y="20.3999" width="4" height="4" stroke="#052C63" />
        <rect x="41.35" y="20.3999" width="4" height="4" stroke="#052C63" />
        <rect x="9.34998" y="24.3999" width="4" height="4" stroke="#052C63" />
        <rect x="13.35" y="24.3999" width="4" height="4" stroke="#052C63" />
        <rect x="17.35" y="24.3999" width="4" height="4" stroke="#052C63" />
        <rect x="21.35" y="24.3999" width="4" height="4" stroke="#052C63" />
        <rect x="25.35" y="24.3999" width="4" height="4" stroke="#052C63" />
        <rect x="29.35" y="24.3999" width="4" height="4" stroke="#052C63" />
        <rect x="33.35" y="24.3999" width="4" height="4" stroke="#052C63" />
        <rect x="37.35" y="24.3999" width="4" height="4" stroke="#052C63" />
        <rect x="41.35" y="24.3999" width="4" height="4" stroke="#052C63" />
        <rect x="9.34998" y="28.3999" width="4" height="4" stroke="#052C63" />
        <rect x="13.35" y="28.3999" width="4" height="4" stroke="#052C63" />
        <rect x="17.35" y="28.3999" width="4" height="4" stroke="#052C63" />
        <rect x="21.35" y="28.3999" width="4" height="4" stroke="#052C63" />
        <rect x="25.35" y="28.3999" width="4" height="4" stroke="#052C63" />
        <rect x="29.35" y="28.3999" width="4" height="4" stroke="#052C63" />
        <rect x="33.35" y="28.3999" width="4" height="4" stroke="#052C63" />
        <rect x="37.35" y="28.3999" width="4" height="4" stroke="#052C63" />
        <rect x="41.35" y="28.3999" width="4" height="4" stroke="#052C63" />
        <rect x="9.34998" y="32.3999" width="4" height="4" stroke="#052C63" />
        <rect x="13.35" y="32.3999" width="4" height="4" stroke="#052C63" />
        <rect x="17.35" y="32.3999" width="4" height="4" stroke="#052C63" />
        <rect x="21.35" y="32.3999" width="4" height="4" stroke="#052C63" />
        <rect x="25.35" y="32.3999" width="4" height="4" stroke="#052C63" />
        <rect x="29.35" y="32.3999" width="4" height="4" stroke="#052C63" />
        <rect x="33.35" y="32.3999" width="4" height="4" stroke="#052C63" />
        <rect x="37.35" y="32.3999" width="4" height="4" stroke="#052C63" />
        <rect x="41.35" y="32.3999" width="4" height="4" stroke="#052C63" />
        <rect x="9.34998" y="36.3999" width="4" height="4" stroke="#052C63" />
        <rect x="13.35" y="36.3999" width="4" height="4" stroke="#052C63" />
        <rect x="17.35" y="36.3999" width="4" height="4" stroke="#052C63" />
        <rect x="21.35" y="36.3999" width="4" height="4" stroke="#052C63" />
        <rect x="25.35" y="36.3999" width="4" height="4" stroke="#052C63" />
        <rect x="29.35" y="36.3999" width="4" height="4" stroke="#052C63" />
        <rect x="33.35" y="36.3999" width="4" height="4" stroke="#052C63" />
        <rect x="37.35" y="36.3999" width="4" height="4" stroke="#052C63" />
        <rect x="41.35" y="36.3999" width="4" height="4" stroke="#052C63" />
        <rect x="9.34998" y="40.3999" width="4" height="4" stroke="#052C63" />
        <rect x="13.35" y="40.3999" width="4" height="4" stroke="#052C63" />
        <rect x="17.35" y="40.3999" width="4" height="4" stroke="#052C63" />
        <rect x="21.35" y="40.3999" width="4" height="4" stroke="#052C63" />
        <rect x="25.35" y="40.3999" width="4" height="4" stroke="#052C63" />
        <rect x="29.35" y="40.3999" width="4" height="4" stroke="#052C63" />
        <rect x="33.35" y="40.3999" width="4" height="4" stroke="#052C63" />
        <rect x="37.35" y="40.3999" width="4" height="4" stroke="#052C63" />
        <rect x="41.35" y="40.3999" width="4" height="4" stroke="#052C63" />
        <g style="mix-blend-mode:lighten">
            <path
                d="M9.09998 36.5942V13.4054L13.5765 9.0498H37.4234L41.9 13.4054V36.5942L37.4234 40.9498H13.5765L9.09998 36.5942Z"
                fill="#00194A" />
            <path
                d="M9.09998 36.5942V13.4054L13.5765 9.0498H37.4234L41.9 13.4054V36.5942L37.4234 40.9498H13.5765L9.09998 36.5942Z"
                stroke="#013C94" stroke-width="0.5" />
        </g>
    </g>
    <defs>
        <linearGradient id="paint0_linear_113_336094" x1="9.775" y1="10.15" x2="39.4161"
            y2="42.4608" gradientUnits="userSpaceOnUse">
            <stop stop-color="#028DF2" />
            <stop offset="0.337619" stop-color="#02569A" />
            <stop offset="1" stop-color="#003B94" />
        </linearGradient>
    </defs>
</svg>
    