<svg width="364" height="729" viewBox="0 0 364 729" fill="none" xmlns="http://www.w3.org/2000/svg">
    <path
        d="M5.28947 40.0263V39.8139L5.13654 39.6664L0.5 35.1954V7.90982L6.58777 2.03947H34.921L41.1617 8.05729L41.307 8.19737H41.5088H105.368H105.57L105.715 8.05729L109.561 4.34868H284.175H284.377L284.522 4.20861L288.368 0.5H355.816L363.5 7.90983V39.0441L360.46 41.9756L360.307 42.1231V42.3355V724.951L356.614 728.5H258.035L254.189 724.803L254.043 724.663H253.842H116.544H116.343L116.197 724.803L112.351 728.5H8.98205L5.28947 724.951V40.0263Z"
        fill="#03192E" stroke="#00539F" stroke-linecap="round" />
    <mask id="mask0_178_140774" style="mask-type:alpha" maskUnits="userSpaceOnUse" x="150" y="6"
        width="207" height="29">
        <rect x="150.868" y="6.1579" width="205.149" height="28.4803" fill="#03192E" />
    </mask>
    <g mask="url(#mask0_178_140774)">
        <rect width="364" height="30.7895" transform="translate(-8.78076 6.1579)" fill="#03192E" />
        <rect x="147.719" y="6.6579" width="4" height="4" stroke="#052C63" />
        <rect x="151.719" y="6.6579" width="4" height="4" stroke="#052C63" />
        <rect x="155.719" y="6.6579" width="4" height="4" stroke="#052C63" />
        <rect x="159.719" y="6.6579" width="4" height="4" stroke="#052C63" />
        <rect x="163.719" y="6.6579" width="4" height="4" stroke="#052C63" />
        <rect x="167.719" y="6.6579" width="4" height="4" stroke="#052C63" />
        <rect x="171.719" y="6.6579" width="4" height="4" stroke="#052C63" />
        <rect x="175.719" y="6.6579" width="4" height="4" stroke="#052C63" />
        <rect x="179.719" y="6.6579" width="4" height="4" stroke="#052C63" />
        <rect x="183.719" y="6.6579" width="4" height="4" stroke="#052C63" />
        <rect x="187.719" y="6.6579" width="4" height="4" stroke="#052C63" />
        <rect x="191.719" y="6.6579" width="4" height="4" stroke="#052C63" />
        <rect x="195.719" y="6.6579" width="4" height="4" stroke="#052C63" />
        <rect x="199.719" y="6.6579" width="4" height="4" stroke="#052C63" />
        <rect x="203.719" y="6.6579" width="4" height="4" stroke="#052C63" />
        <rect x="207.719" y="6.6579" width="4" height="4" stroke="#052C63" />
        <rect x="211.719" y="6.6579" width="4" height="4" stroke="#052C63" />
        <rect x="215.719" y="6.6579" width="4" height="4" stroke="#052C63" />
        <rect x="219.719" y="6.6579" width="4" height="4" stroke="#052C63" />
        <rect x="223.719" y="6.6579" width="4" height="4" stroke="#052C63" />
        <rect x="227.719" y="6.6579" width="4" height="4" stroke="#052C63" />
        <rect x="231.719" y="6.6579" width="4" height="4" stroke="#052C63" />
        <rect x="235.719" y="6.6579" width="4" height="4" stroke="#052C63" />
        <rect x="239.719" y="6.6579" width="4" height="4" stroke="#052C63" />
        <rect x="243.719" y="6.6579" width="4" height="4" stroke="#052C63" />
        <rect x="247.719" y="6.6579" width="4" height="4" stroke="#052C63" />
        <rect x="251.719" y="6.6579" width="4" height="4" stroke="#052C63" />
        <rect x="255.719" y="6.6579" width="4" height="4" stroke="#052C63" />
        <rect x="259.719" y="6.6579" width="4" height="4" stroke="#052C63" />
        <rect x="263.719" y="6.6579" width="4" height="4" stroke="#052C63" />
        <rect x="267.719" y="6.6579" width="4" height="4" stroke="#052C63" />
        <rect x="271.719" y="6.6579" width="4" height="4" stroke="#052C63" />
        <rect x="275.719" y="6.6579" width="4" height="4" stroke="#052C63" />
        <rect x="279.719" y="6.6579" width="4" height="4" stroke="#052C63" />
        <rect x="283.719" y="6.6579" width="4" height="4" stroke="#052C63" />
        <rect x="287.719" y="6.6579" width="4" height="4" stroke="#052C63" />
        <rect x="291.719" y="6.6579" width="4" height="4" stroke="#052C63" />
        <rect x="295.719" y="6.6579" width="4" height="4" stroke="#052C63" />
        <rect x="299.719" y="6.6579" width="4" height="4" stroke="#052C63" />
        <rect x="303.719" y="6.6579" width="4" height="4" stroke="#052C63" />
        <rect x="307.719" y="6.6579" width="4" height="4" stroke="#052C63" />
        <rect x="311.719" y="6.6579" width="4" height="4" stroke="#052C63" />
        <rect x="315.719" y="6.6579" width="4" height="4" stroke="#052C63" />
        <rect x="319.719" y="6.6579" width="4" height="4" stroke="#052C63" />
        <rect x="323.719" y="6.6579" width="4" height="4" stroke="#052C63" />
        <rect x="327.719" y="6.6579" width="4" height="4" stroke="#052C63" />
        <rect x="331.719" y="6.6579" width="4" height="4" stroke="#052C63" />
        <rect x="335.719" y="6.6579" width="4" height="4" stroke="#052C63" />
        <rect x="339.719" y="6.6579" width="4" height="4" stroke="#052C63" />
        <rect x="343.719" y="6.6579" width="4" height="4" stroke="#052C63" />
        <rect x="347.719" y="6.6579" width="4" height="4" stroke="#052C63" />
        <rect x="351.719" y="6.6579" width="4" height="4" stroke="#052C63" />
        <rect x="355.719" y="6.6579" width="4" height="4" stroke="#052C63" />
        <rect x="147.719" y="10.6579" width="4" height="4" stroke="#052C63" />
        <rect x="151.719" y="10.6579" width="4" height="4" stroke="#052C63" />
        <rect x="155.719" y="10.6579" width="4" height="4" stroke="#052C63" />
        <rect x="159.719" y="10.6579" width="4" height="4" stroke="#052C63" />
        <rect x="163.719" y="10.6579" width="4" height="4" stroke="#052C63" />
        <rect x="167.719" y="10.6579" width="4" height="4" stroke="#052C63" />
        <rect x="171.719" y="10.6579" width="4" height="4" stroke="#052C63" />
        <rect x="175.719" y="10.6579" width="4" height="4" stroke="#052C63" />
        <rect x="179.719" y="10.6579" width="4" height="4" stroke="#052C63" />
        <rect x="183.719" y="10.6579" width="4" height="4" stroke="#052C63" />
        <rect x="187.719" y="10.6579" width="4" height="4" stroke="#052C63" />
        <rect x="191.719" y="10.6579" width="4" height="4" stroke="#052C63" />
        <rect x="195.719" y="10.6579" width="4" height="4" stroke="#052C63" />
        <rect x="199.719" y="10.6579" width="4" height="4" stroke="#052C63" />
        <rect x="203.719" y="10.6579" width="4" height="4" stroke="#052C63" />
        <rect x="207.719" y="10.6579" width="4" height="4" stroke="#052C63" />
        <rect x="211.719" y="10.6579" width="4" height="4" stroke="#052C63" />
        <rect x="215.719" y="10.6579" width="4" height="4" stroke="#052C63" />
        <rect x="219.719" y="10.6579" width="4" height="4" stroke="#052C63" />
        <rect x="223.719" y="10.6579" width="4" height="4" stroke="#052C63" />
        <rect x="227.719" y="10.6579" width="4" height="4" stroke="#052C63" />
        <rect x="231.719" y="10.6579" width="4" height="4" stroke="#052C63" />
        <rect x="235.719" y="10.6579" width="4" height="4" stroke="#052C63" />
        <rect x="239.719" y="10.6579" width="4" height="4" stroke="#052C63" />
        <rect x="243.719" y="10.6579" width="4" height="4" stroke="#052C63" />
        <rect x="247.719" y="10.6579" width="4" height="4" stroke="#052C63" />
        <rect x="251.719" y="10.6579" width="4" height="4" stroke="#052C63" />
        <rect x="255.719" y="10.6579" width="4" height="4" stroke="#052C63" />
        <rect x="259.719" y="10.6579" width="4" height="4" stroke="#052C63" />
        <rect x="263.719" y="10.6579" width="4" height="4" stroke="#052C63" />
        <rect x="267.719" y="10.6579" width="4" height="4" stroke="#052C63" />
        <rect x="271.719" y="10.6579" width="4" height="4" stroke="#052C63" />
        <rect x="275.719" y="10.6579" width="4" height="4" stroke="#052C63" />
        <rect x="279.719" y="10.6579" width="4" height="4" stroke="#052C63" />
        <rect x="283.719" y="10.6579" width="4" height="4" stroke="#052C63" />
        <rect x="287.719" y="10.6579" width="4" height="4" stroke="#052C63" />
        <rect x="291.719" y="10.6579" width="4" height="4" stroke="#052C63" />
        <rect x="295.719" y="10.6579" width="4" height="4" stroke="#052C63" />
        <rect x="299.719" y="10.6579" width="4" height="4" stroke="#052C63" />
        <rect x="303.719" y="10.6579" width="4" height="4" stroke="#052C63" />
        <rect x="307.719" y="10.6579" width="4" height="4" stroke="#052C63" />
        <rect x="311.719" y="10.6579" width="4" height="4" stroke="#052C63" />
        <rect x="315.719" y="10.6579" width="4" height="4" stroke="#052C63" />
        <rect x="319.719" y="10.6579" width="4" height="4" stroke="#052C63" />
        <rect x="323.719" y="10.6579" width="4" height="4" stroke="#052C63" />
        <rect x="327.719" y="10.6579" width="4" height="4" stroke="#052C63" />
        <rect x="331.719" y="10.6579" width="4" height="4" stroke="#052C63" />
        <rect x="335.719" y="10.6579" width="4" height="4" stroke="#052C63" />
        <rect x="339.719" y="10.6579" width="4" height="4" stroke="#052C63" />
        <rect x="343.719" y="10.6579" width="4" height="4" stroke="#052C63" />
        <rect x="347.719" y="10.6579" width="4" height="4" stroke="#052C63" />
        <rect x="351.719" y="10.6579" width="4" height="4" stroke="#052C63" />
        <rect x="355.719" y="10.6579" width="4" height="4" stroke="#052C63" />
        <rect x="147.719" y="14.6579" width="4" height="4" stroke="#052C63" />
        <rect x="151.719" y="14.6579" width="4" height="4" stroke="#052C63" />
        <rect x="155.719" y="14.6579" width="4" height="4" stroke="#052C63" />
        <rect x="159.719" y="14.6579" width="4" height="4" stroke="#052C63" />
        <rect x="163.719" y="14.6579" width="4" height="4" stroke="#052C63" />
        <rect x="167.719" y="14.6579" width="4" height="4" stroke="#052C63" />
        <rect x="171.719" y="14.6579" width="4" height="4" stroke="#052C63" />
        <rect x="175.719" y="14.6579" width="4" height="4" stroke="#052C63" />
        <rect x="179.719" y="14.6579" width="4" height="4" stroke="#052C63" />
        <rect x="183.719" y="14.6579" width="4" height="4" stroke="#052C63" />
        <rect x="187.719" y="14.6579" width="4" height="4" stroke="#052C63" />
        <rect x="191.719" y="14.6579" width="4" height="4" stroke="#052C63" />
        <rect x="195.719" y="14.6579" width="4" height="4" stroke="#052C63" />
        <rect x="199.719" y="14.6579" width="4" height="4" stroke="#052C63" />
        <rect x="203.719" y="14.6579" width="4" height="4" stroke="#052C63" />
        <rect x="207.719" y="14.6579" width="4" height="4" stroke="#052C63" />
        <rect x="211.719" y="14.6579" width="4" height="4" stroke="#052C63" />
        <rect x="215.719" y="14.6579" width="4" height="4" stroke="#052C63" />
        <rect x="219.719" y="14.6579" width="4" height="4" stroke="#052C63" />
        <rect x="223.719" y="14.6579" width="4" height="4" stroke="#052C63" />
        <rect x="227.719" y="14.6579" width="4" height="4" stroke="#052C63" />
        <rect x="231.719" y="14.6579" width="4" height="4" stroke="#052C63" />
        <rect x="235.719" y="14.6579" width="4" height="4" stroke="#052C63" />
        <rect x="239.719" y="14.6579" width="4" height="4" stroke="#052C63" />
        <rect x="243.719" y="14.6579" width="4" height="4" stroke="#052C63" />
        <rect x="247.719" y="14.6579" width="4" height="4" stroke="#052C63" />
        <rect x="251.719" y="14.6579" width="4" height="4" stroke="#052C63" />
        <rect x="255.719" y="14.6579" width="4" height="4" stroke="#052C63" />
        <rect x="259.719" y="14.6579" width="4" height="4" stroke="#052C63" />
        <rect x="263.719" y="14.6579" width="4" height="4" stroke="#052C63" />
        <rect x="267.719" y="14.6579" width="4" height="4" stroke="#052C63" />
        <rect x="271.719" y="14.6579" width="4" height="4" stroke="#052C63" />
        <rect x="275.719" y="14.6579" width="4" height="4" stroke="#052C63" />
        <rect x="279.719" y="14.6579" width="4" height="4" stroke="#052C63" />
        <rect x="283.719" y="14.6579" width="4" height="4" stroke="#052C63" />
        <rect x="287.719" y="14.6579" width="4" height="4" stroke="#052C63" />
        <rect x="291.719" y="14.6579" width="4" height="4" stroke="#052C63" />
        <rect x="295.719" y="14.6579" width="4" height="4" stroke="#052C63" />
        <rect x="299.719" y="14.6579" width="4" height="4" stroke="#052C63" />
        <rect x="303.719" y="14.6579" width="4" height="4" stroke="#052C63" />
        <rect x="307.719" y="14.6579" width="4" height="4" stroke="#052C63" />
        <rect x="311.719" y="14.6579" width="4" height="4" stroke="#052C63" />
        <rect x="315.719" y="14.6579" width="4" height="4" stroke="#052C63" />
        <rect x="319.719" y="14.6579" width="4" height="4" stroke="#052C63" />
        <rect x="323.719" y="14.6579" width="4" height="4" stroke="#052C63" />
        <rect x="327.719" y="14.6579" width="4" height="4" stroke="#052C63" />
        <rect x="331.719" y="14.6579" width="4" height="4" stroke="#052C63" />
        <rect x="335.719" y="14.6579" width="4" height="4" stroke="#052C63" />
        <rect x="339.719" y="14.6579" width="4" height="4" stroke="#052C63" />
        <rect x="343.719" y="14.6579" width="4" height="4" stroke="#052C63" />
        <rect x="347.719" y="14.6579" width="4" height="4" stroke="#052C63" />
        <rect x="351.719" y="14.6579" width="4" height="4" stroke="#052C63" />
        <rect x="355.719" y="14.6579" width="4" height="4" stroke="#052C63" />
        <rect x="147.719" y="18.6579" width="4" height="4" stroke="#052C63" />
        <rect x="151.719" y="18.6579" width="4" height="4" stroke="#052C63" />
        <rect x="155.719" y="18.6579" width="4" height="4" stroke="#052C63" />
        <rect x="159.719" y="18.6579" width="4" height="4" stroke="#052C63" />
        <rect x="163.719" y="18.6579" width="4" height="4" stroke="#052C63" />
        <rect x="167.719" y="18.6579" width="4" height="4" stroke="#052C63" />
        <rect x="171.719" y="18.6579" width="4" height="4" stroke="#052C63" />
        <rect x="175.719" y="18.6579" width="4" height="4" stroke="#052C63" />
        <rect x="179.719" y="18.6579" width="4" height="4" stroke="#052C63" />
        <rect x="183.719" y="18.6579" width="4" height="4" stroke="#052C63" />
        <rect x="187.719" y="18.6579" width="4" height="4" stroke="#052C63" />
        <rect x="191.719" y="18.6579" width="4" height="4" stroke="#052C63" />
        <rect x="195.719" y="18.6579" width="4" height="4" stroke="#052C63" />
        <rect x="199.719" y="18.6579" width="4" height="4" stroke="#052C63" />
        <rect x="203.719" y="18.6579" width="4" height="4" stroke="#052C63" />
        <rect x="207.719" y="18.6579" width="4" height="4" stroke="#052C63" />
        <rect x="211.719" y="18.6579" width="4" height="4" stroke="#052C63" />
        <rect x="215.719" y="18.6579" width="4" height="4" stroke="#052C63" />
        <rect x="219.719" y="18.6579" width="4" height="4" stroke="#052C63" />
        <rect x="223.719" y="18.6579" width="4" height="4" stroke="#052C63" />
        <rect x="227.719" y="18.6579" width="4" height="4" stroke="#052C63" />
        <rect x="231.719" y="18.6579" width="4" height="4" stroke="#052C63" />
        <rect x="235.719" y="18.6579" width="4" height="4" stroke="#052C63" />
        <rect x="239.719" y="18.6579" width="4" height="4" stroke="#052C63" />
        <rect x="243.719" y="18.6579" width="4" height="4" stroke="#052C63" />
        <rect x="247.719" y="18.6579" width="4" height="4" stroke="#052C63" />
        <rect x="251.719" y="18.6579" width="4" height="4" stroke="#052C63" />
        <rect x="255.719" y="18.6579" width="4" height="4" stroke="#052C63" />
        <rect x="259.719" y="18.6579" width="4" height="4" stroke="#052C63" />
        <rect x="263.719" y="18.6579" width="4" height="4" stroke="#052C63" />
        <rect x="267.719" y="18.6579" width="4" height="4" stroke="#052C63" />
        <rect x="271.719" y="18.6579" width="4" height="4" stroke="#052C63" />
        <rect x="275.719" y="18.6579" width="4" height="4" stroke="#052C63" />
        <rect x="279.719" y="18.6579" width="4" height="4" stroke="#052C63" />
        <rect x="283.719" y="18.6579" width="4" height="4" stroke="#052C63" />
        <rect x="287.719" y="18.6579" width="4" height="4" stroke="#052C63" />
        <rect x="291.719" y="18.6579" width="4" height="4" stroke="#052C63" />
        <rect x="295.719" y="18.6579" width="4" height="4" stroke="#052C63" />
        <rect x="299.719" y="18.6579" width="4" height="4" stroke="#052C63" />
        <rect x="303.719" y="18.6579" width="4" height="4" stroke="#052C63" />
        <rect x="307.719" y="18.6579" width="4" height="4" stroke="#052C63" />
        <rect x="311.719" y="18.6579" width="4" height="4" stroke="#052C63" />
        <rect x="315.719" y="18.6579" width="4" height="4" stroke="#052C63" />
        <rect x="319.719" y="18.6579" width="4" height="4" stroke="#052C63" />
        <rect x="323.719" y="18.6579" width="4" height="4" stroke="#052C63" />
        <rect x="327.719" y="18.6579" width="4" height="4" stroke="#052C63" />
        <rect x="331.719" y="18.6579" width="4" height="4" stroke="#052C63" />
        <rect x="335.719" y="18.6579" width="4" height="4" stroke="#052C63" />
        <rect x="339.719" y="18.6579" width="4" height="4" stroke="#052C63" />
        <rect x="343.719" y="18.6579" width="4" height="4" stroke="#052C63" />
        <rect x="347.719" y="18.6579" width="4" height="4" stroke="#052C63" />
        <rect x="351.719" y="18.6579" width="4" height="4" stroke="#052C63" />
        <rect x="355.719" y="18.6579" width="4" height="4" stroke="#052C63" />
        <rect x="147.719" y="22.6579" width="4" height="4" stroke="#052C63" />
        <rect x="151.719" y="22.6579" width="4" height="4" stroke="#052C63" />
        <rect x="155.719" y="22.6579" width="4" height="4" stroke="#052C63" />
        <rect x="159.719" y="22.6579" width="4" height="4" stroke="#052C63" />
        <rect x="163.719" y="22.6579" width="4" height="4" stroke="#052C63" />
        <rect x="167.719" y="22.6579" width="4" height="4" stroke="#052C63" />
        <rect x="171.719" y="22.6579" width="4" height="4" stroke="#052C63" />
        <rect x="175.719" y="22.6579" width="4" height="4" stroke="#052C63" />
        <rect x="179.719" y="22.6579" width="4" height="4" stroke="#052C63" />
        <rect x="183.719" y="22.6579" width="4" height="4" stroke="#052C63" />
        <rect x="187.719" y="22.6579" width="4" height="4" stroke="#052C63" />
        <rect x="191.719" y="22.6579" width="4" height="4" stroke="#052C63" />
        <rect x="195.719" y="22.6579" width="4" height="4" stroke="#052C63" />
        <rect x="199.719" y="22.6579" width="4" height="4" stroke="#052C63" />
        <rect x="203.719" y="22.6579" width="4" height="4" stroke="#052C63" />
        <rect x="207.719" y="22.6579" width="4" height="4" stroke="#052C63" />
        <rect x="211.719" y="22.6579" width="4" height="4" stroke="#052C63" />
        <rect x="215.719" y="22.6579" width="4" height="4" stroke="#052C63" />
        <rect x="219.719" y="22.6579" width="4" height="4" stroke="#052C63" />
        <rect x="223.719" y="22.6579" width="4" height="4" stroke="#052C63" />
        <rect x="227.719" y="22.6579" width="4" height="4" stroke="#052C63" />
        <rect x="231.719" y="22.6579" width="4" height="4" stroke="#052C63" />
        <rect x="235.719" y="22.6579" width="4" height="4" stroke="#052C63" />
        <rect x="239.719" y="22.6579" width="4" height="4" stroke="#052C63" />
        <rect x="243.719" y="22.6579" width="4" height="4" stroke="#052C63" />
        <rect x="247.719" y="22.6579" width="4" height="4" stroke="#052C63" />
        <rect x="251.719" y="22.6579" width="4" height="4" stroke="#052C63" />
        <rect x="255.719" y="22.6579" width="4" height="4" stroke="#052C63" />
        <rect x="259.719" y="22.6579" width="4" height="4" stroke="#052C63" />
        <rect x="263.719" y="22.6579" width="4" height="4" stroke="#052C63" />
        <rect x="267.719" y="22.6579" width="4" height="4" stroke="#052C63" />
        <rect x="271.719" y="22.6579" width="4" height="4" stroke="#052C63" />
        <rect x="275.719" y="22.6579" width="4" height="4" stroke="#052C63" />
        <rect x="279.719" y="22.6579" width="4" height="4" stroke="#052C63" />
        <rect x="283.719" y="22.6579" width="4" height="4" stroke="#052C63" />
        <rect x="287.719" y="22.6579" width="4" height="4" stroke="#052C63" />
        <rect x="291.719" y="22.6579" width="4" height="4" stroke="#052C63" />
        <rect x="295.719" y="22.6579" width="4" height="4" stroke="#052C63" />
        <rect x="299.719" y="22.6579" width="4" height="4" stroke="#052C63" />
        <rect x="303.719" y="22.6579" width="4" height="4" stroke="#052C63" />
        <rect x="307.719" y="22.6579" width="4" height="4" stroke="#052C63" />
        <rect x="311.719" y="22.6579" width="4" height="4" stroke="#052C63" />
        <rect x="315.719" y="22.6579" width="4" height="4" stroke="#052C63" />
        <rect x="319.719" y="22.6579" width="4" height="4" stroke="#052C63" />
        <rect x="323.719" y="22.6579" width="4" height="4" stroke="#052C63" />
        <rect x="327.719" y="22.6579" width="4" height="4" stroke="#052C63" />
        <rect x="331.719" y="22.6579" width="4" height="4" stroke="#052C63" />
        <rect x="335.719" y="22.6579" width="4" height="4" stroke="#052C63" />
        <rect x="339.719" y="22.6579" width="4" height="4" stroke="#052C63" />
        <rect x="343.719" y="22.6579" width="4" height="4" stroke="#052C63" />
        <rect x="347.719" y="22.6579" width="4" height="4" stroke="#052C63" />
        <rect x="351.719" y="22.6579" width="4" height="4" stroke="#052C63" />
        <rect x="355.719" y="22.6579" width="4" height="4" stroke="#052C63" />
        <rect x="147.719" y="26.6579" width="4" height="4" stroke="#052C63" />
        <rect x="151.719" y="26.6579" width="4" height="4" stroke="#052C63" />
        <rect x="155.719" y="26.6579" width="4" height="4" stroke="#052C63" />
        <rect x="159.719" y="26.6579" width="4" height="4" stroke="#052C63" />
        <rect x="163.719" y="26.6579" width="4" height="4" stroke="#052C63" />
        <rect x="167.719" y="26.6579" width="4" height="4" stroke="#052C63" />
        <rect x="171.719" y="26.6579" width="4" height="4" stroke="#052C63" />
        <rect x="175.719" y="26.6579" width="4" height="4" stroke="#052C63" />
        <rect x="179.719" y="26.6579" width="4" height="4" stroke="#052C63" />
        <rect x="183.719" y="26.6579" width="4" height="4" stroke="#052C63" />
        <rect x="187.719" y="26.6579" width="4" height="4" stroke="#052C63" />
        <rect x="191.719" y="26.6579" width="4" height="4" stroke="#052C63" />
        <rect x="195.719" y="26.6579" width="4" height="4" stroke="#052C63" />
        <rect x="199.719" y="26.6579" width="4" height="4" stroke="#052C63" />
        <rect x="203.719" y="26.6579" width="4" height="4" stroke="#052C63" />
        <rect x="207.719" y="26.6579" width="4" height="4" stroke="#052C63" />
        <rect x="211.719" y="26.6579" width="4" height="4" stroke="#052C63" />
        <rect x="215.719" y="26.6579" width="4" height="4" stroke="#052C63" />
        <rect x="219.719" y="26.6579" width="4" height="4" stroke="#052C63" />
        <rect x="223.719" y="26.6579" width="4" height="4" stroke="#052C63" />
        <rect x="227.719" y="26.6579" width="4" height="4" stroke="#052C63" />
        <rect x="231.719" y="26.6579" width="4" height="4" stroke="#052C63" />
        <rect x="235.719" y="26.6579" width="4" height="4" stroke="#052C63" />
        <rect x="239.719" y="26.6579" width="4" height="4" stroke="#052C63" />
        <rect x="243.719" y="26.6579" width="4" height="4" stroke="#052C63" />
        <rect x="247.719" y="26.6579" width="4" height="4" stroke="#052C63" />
        <rect x="251.719" y="26.6579" width="4" height="4" stroke="#052C63" />
        <rect x="255.719" y="26.6579" width="4" height="4" stroke="#052C63" />
        <rect x="259.719" y="26.6579" width="4" height="4" stroke="#052C63" />
        <rect x="263.719" y="26.6579" width="4" height="4" stroke="#052C63" />
        <rect x="267.719" y="26.6579" width="4" height="4" stroke="#052C63" />
        <rect x="271.719" y="26.6579" width="4" height="4" stroke="#052C63" />
        <rect x="275.719" y="26.6579" width="4" height="4" stroke="#052C63" />
        <rect x="279.719" y="26.6579" width="4" height="4" stroke="#052C63" />
        <rect x="283.719" y="26.6579" width="4" height="4" stroke="#052C63" />
        <rect x="287.719" y="26.6579" width="4" height="4" stroke="#052C63" />
        <rect x="291.719" y="26.6579" width="4" height="4" stroke="#052C63" />
        <rect x="295.719" y="26.6579" width="4" height="4" stroke="#052C63" />
        <rect x="299.719" y="26.6579" width="4" height="4" stroke="#052C63" />
        <rect x="303.719" y="26.6579" width="4" height="4" stroke="#052C63" />
        <rect x="307.719" y="26.6579" width="4" height="4" stroke="#052C63" />
        <rect x="311.719" y="26.6579" width="4" height="4" stroke="#052C63" />
        <rect x="315.719" y="26.6579" width="4" height="4" stroke="#052C63" />
        <rect x="319.719" y="26.6579" width="4" height="4" stroke="#052C63" />
        <rect x="323.719" y="26.6579" width="4" height="4" stroke="#052C63" />
        <rect x="327.719" y="26.6579" width="4" height="4" stroke="#052C63" />
        <rect x="331.719" y="26.6579" width="4" height="4" stroke="#052C63" />
        <rect x="335.719" y="26.6579" width="4" height="4" stroke="#052C63" />
        <rect x="339.719" y="26.6579" width="4" height="4" stroke="#052C63" />
        <rect x="343.719" y="26.6579" width="4" height="4" stroke="#052C63" />
        <rect x="347.719" y="26.6579" width="4" height="4" stroke="#052C63" />
        <rect x="351.719" y="26.6579" width="4" height="4" stroke="#052C63" />
        <rect x="355.719" y="26.6579" width="4" height="4" stroke="#052C63" />
        <rect x="147.719" y="30.6579" width="4" height="4" stroke="#052C63" />
        <rect x="151.719" y="30.6579" width="4" height="4" stroke="#052C63" />
        <rect x="155.719" y="30.6579" width="4" height="4" stroke="#052C63" />
        <rect x="159.719" y="30.6579" width="4" height="4" stroke="#052C63" />
        <rect x="163.719" y="30.6579" width="4" height="4" stroke="#052C63" />
        <rect x="167.719" y="30.6579" width="4" height="4" stroke="#052C63" />
        <rect x="171.719" y="30.6579" width="4" height="4" stroke="#052C63" />
        <rect x="175.719" y="30.6579" width="4" height="4" stroke="#052C63" />
        <rect x="179.719" y="30.6579" width="4" height="4" stroke="#052C63" />
        <rect x="183.719" y="30.6579" width="4" height="4" stroke="#052C63" />
        <rect x="187.719" y="30.6579" width="4" height="4" stroke="#052C63" />
        <rect x="191.719" y="30.6579" width="4" height="4" stroke="#052C63" />
        <rect x="195.719" y="30.6579" width="4" height="4" stroke="#052C63" />
        <rect x="199.719" y="30.6579" width="4" height="4" stroke="#052C63" />
        <rect x="203.719" y="30.6579" width="4" height="4" stroke="#052C63" />
        <rect x="207.719" y="30.6579" width="4" height="4" stroke="#052C63" />
        <rect x="211.719" y="30.6579" width="4" height="4" stroke="#052C63" />
        <rect x="215.719" y="30.6579" width="4" height="4" stroke="#052C63" />
        <rect x="219.719" y="30.6579" width="4" height="4" stroke="#052C63" />
        <rect x="223.719" y="30.6579" width="4" height="4" stroke="#052C63" />
        <rect x="227.719" y="30.6579" width="4" height="4" stroke="#052C63" />
        <rect x="231.719" y="30.6579" width="4" height="4" stroke="#052C63" />
        <rect x="235.719" y="30.6579" width="4" height="4" stroke="#052C63" />
        <rect x="239.719" y="30.6579" width="4" height="4" stroke="#052C63" />
        <rect x="243.719" y="30.6579" width="4" height="4" stroke="#052C63" />
        <rect x="247.719" y="30.6579" width="4" height="4" stroke="#052C63" />
        <rect x="251.719" y="30.6579" width="4" height="4" stroke="#052C63" />
        <rect x="255.719" y="30.6579" width="4" height="4" stroke="#052C63" />
        <rect x="259.719" y="30.6579" width="4" height="4" stroke="#052C63" />
        <rect x="263.719" y="30.6579" width="4" height="4" stroke="#052C63" />
        <rect x="267.719" y="30.6579" width="4" height="4" stroke="#052C63" />
        <rect x="271.719" y="30.6579" width="4" height="4" stroke="#052C63" />
        <rect x="275.719" y="30.6579" width="4" height="4" stroke="#052C63" />
        <rect x="279.719" y="30.6579" width="4" height="4" stroke="#052C63" />
        <rect x="283.719" y="30.6579" width="4" height="4" stroke="#052C63" />
        <rect x="287.719" y="30.6579" width="4" height="4" stroke="#052C63" />
        <rect x="291.719" y="30.6579" width="4" height="4" stroke="#052C63" />
        <rect x="295.719" y="30.6579" width="4" height="4" stroke="#052C63" />
        <rect x="299.719" y="30.6579" width="4" height="4" stroke="#052C63" />
        <rect x="303.719" y="30.6579" width="4" height="4" stroke="#052C63" />
        <rect x="307.719" y="30.6579" width="4" height="4" stroke="#052C63" />
        <rect x="311.719" y="30.6579" width="4" height="4" stroke="#052C63" />
        <rect x="315.719" y="30.6579" width="4" height="4" stroke="#052C63" />
        <rect x="319.719" y="30.6579" width="4" height="4" stroke="#052C63" />
        <rect x="323.719" y="30.6579" width="4" height="4" stroke="#052C63" />
        <rect x="327.719" y="30.6579" width="4" height="4" stroke="#052C63" />
        <rect x="331.719" y="30.6579" width="4" height="4" stroke="#052C63" />
        <rect x="335.719" y="30.6579" width="4" height="4" stroke="#052C63" />
        <rect x="339.719" y="30.6579" width="4" height="4" stroke="#052C63" />
        <rect x="343.719" y="30.6579" width="4" height="4" stroke="#052C63" />
        <rect x="347.719" y="30.6579" width="4" height="4" stroke="#052C63" />
        <rect x="351.719" y="30.6579" width="4" height="4" stroke="#052C63" />
        <rect x="355.719" y="30.6579" width="4" height="4" stroke="#052C63" />
        <rect x="147.719" y="34.6579" width="4" height="4" stroke="#052C63" />
        <rect x="151.719" y="34.6579" width="4" height="4" stroke="#052C63" />
        <rect x="155.719" y="34.6579" width="4" height="4" stroke="#052C63" />
        <rect x="159.719" y="34.6579" width="4" height="4" stroke="#052C63" />
        <rect x="163.719" y="34.6579" width="4" height="4" stroke="#052C63" />
        <rect x="167.719" y="34.6579" width="4" height="4" stroke="#052C63" />
        <rect x="171.719" y="34.6579" width="4" height="4" stroke="#052C63" />
        <rect x="175.719" y="34.6579" width="4" height="4" stroke="#052C63" />
        <rect x="179.719" y="34.6579" width="4" height="4" stroke="#052C63" />
        <rect x="183.719" y="34.6579" width="4" height="4" stroke="#052C63" />
        <rect x="187.719" y="34.6579" width="4" height="4" stroke="#052C63" />
        <rect x="191.719" y="34.6579" width="4" height="4" stroke="#052C63" />
        <rect x="195.719" y="34.6579" width="4" height="4" stroke="#052C63" />
        <rect x="199.719" y="34.6579" width="4" height="4" stroke="#052C63" />
        <rect x="203.719" y="34.6579" width="4" height="4" stroke="#052C63" />
        <rect x="207.719" y="34.6579" width="4" height="4" stroke="#052C63" />
        <rect x="211.719" y="34.6579" width="4" height="4" stroke="#052C63" />
        <rect x="215.719" y="34.6579" width="4" height="4" stroke="#052C63" />
        <rect x="219.719" y="34.6579" width="4" height="4" stroke="#052C63" />
        <rect x="223.719" y="34.6579" width="4" height="4" stroke="#052C63" />
        <rect x="227.719" y="34.6579" width="4" height="4" stroke="#052C63" />
        <rect x="231.719" y="34.6579" width="4" height="4" stroke="#052C63" />
        <rect x="235.719" y="34.6579" width="4" height="4" stroke="#052C63" />
        <rect x="239.719" y="34.6579" width="4" height="4" stroke="#052C63" />
        <rect x="243.719" y="34.6579" width="4" height="4" stroke="#052C63" />
        <rect x="247.719" y="34.6579" width="4" height="4" stroke="#052C63" />
        <rect x="251.719" y="34.6579" width="4" height="4" stroke="#052C63" />
        <rect x="255.719" y="34.6579" width="4" height="4" stroke="#052C63" />
        <rect x="259.719" y="34.6579" width="4" height="4" stroke="#052C63" />
        <rect x="263.719" y="34.6579" width="4" height="4" stroke="#052C63" />
        <rect x="267.719" y="34.6579" width="4" height="4" stroke="#052C63" />
        <rect x="271.719" y="34.6579" width="4" height="4" stroke="#052C63" />
        <rect x="275.719" y="34.6579" width="4" height="4" stroke="#052C63" />
        <rect x="279.719" y="34.6579" width="4" height="4" stroke="#052C63" />
        <rect x="283.719" y="34.6579" width="4" height="4" stroke="#052C63" />
        <rect x="287.719" y="34.6579" width="4" height="4" stroke="#052C63" />
        <rect x="291.719" y="34.6579" width="4" height="4" stroke="#052C63" />
        <rect x="295.719" y="34.6579" width="4" height="4" stroke="#052C63" />
        <rect x="299.719" y="34.6579" width="4" height="4" stroke="#052C63" />
        <rect x="303.719" y="34.6579" width="4" height="4" stroke="#052C63" />
        <rect x="307.719" y="34.6579" width="4" height="4" stroke="#052C63" />
        <rect x="311.719" y="34.6579" width="4" height="4" stroke="#052C63" />
        <rect x="315.719" y="34.6579" width="4" height="4" stroke="#052C63" />
        <rect x="319.719" y="34.6579" width="4" height="4" stroke="#052C63" />
        <rect x="323.719" y="34.6579" width="4" height="4" stroke="#052C63" />
        <rect x="327.719" y="34.6579" width="4" height="4" stroke="#052C63" />
        <rect x="331.719" y="34.6579" width="4" height="4" stroke="#052C63" />
        <rect x="335.719" y="34.6579" width="4" height="4" stroke="#052C63" />
        <rect x="339.719" y="34.6579" width="4" height="4" stroke="#052C63" />
        <rect x="343.719" y="34.6579" width="4" height="4" stroke="#052C63" />
        <rect x="347.719" y="34.6579" width="4" height="4" stroke="#052C63" />
        <rect x="351.719" y="34.6579" width="4" height="4" stroke="#052C63" />
        <rect x="355.719" y="34.6579" width="4" height="4" stroke="#052C63" />
    </g>
    <path d="M284.575 4.23355H355.219L359.61 8.85197V33.8684L356.417 36.5625H147.676"
        stroke="#00539F" />
    <path fill-rule="evenodd" clip-rule="evenodd"
        d="M290.561 1.53947H291.36L289.763 3.07895H288.965L290.561 1.53947ZM292.956 1.53947H293.754L292.158 3.07895H291.36L292.956 1.53947ZM296.149 1.53947H295.351L293.754 3.07895H294.553L296.149 1.53947ZM297.746 1.53947H298.544L296.947 3.07895H296.149L297.746 1.53947ZM300.939 1.53947H300.14L298.544 3.07895H299.342L300.939 1.53947ZM302.535 1.53947H303.333L301.737 3.07895H300.939L302.535 1.53947ZM305.728 1.53947H304.93L303.333 3.07895H304.132L305.728 1.53947ZM307.325 1.53947H308.123L306.526 3.07895H305.728L307.325 1.53947ZM310.518 1.53947H309.719L308.123 3.07895H308.921L310.518 1.53947Z"
        fill="#03192E" />
    <path d="M189.184 36.5625L185.991 39.6414H77.4299" stroke="#00539F" />
    <ellipse cx="148.075" cy="36.5625" rx="1.19737" ry="1.15461" fill="#03192E" />
    <ellipse cx="77.829" cy="39.6414" rx="1.19737" ry="1.15461" fill="#03192E" />
    <path d="M43.9035 6.1579L39.114 1.53947H60.6666V6.1579H43.9035Z" fill="#03192E" />
    <path d="M62.2632 6.1579V1.53947H68.6491L73.4386 6.1579H62.2632Z" fill="#03192E" />
    <rect width="37" height="36" transform="translate(7 7)" fill="#03192E" />
    <path
        d="M7.5 37.3889V12.6111L12.7531 7.5H38.2469L43.5 12.6111V37.3889L38.2469 42.5H12.7531L7.5 37.3889Z"
        fill="#001A41" stroke="url(#paint0_linear_178_140774)" />
    <mask id="mask1_178_140774" style="mask-type:alpha" maskUnits="userSpaceOnUse" x="8" y="8"
        width="35" height="34">
        <path
            d="M9.1001 36.5944V13.4056L13.5767 9.05H37.4235L41.9001 13.4056V36.5944L37.4235 40.95H13.5766L9.1001 36.5944Z"
            fill="#00194A" stroke="#013C94" stroke-width="0.5" />
    </mask>
    <g mask="url(#mask1_178_140774)">
        <rect x="9.3501" y="8.4" width="4" height="4" stroke="#032565" />
        <rect x="13.3501" y="8.4" width="4" height="4" stroke="#032565" />
        <rect x="17.3501" y="8.4" width="4" height="4" stroke="#032565" />
        <rect x="21.3501" y="8.4" width="4" height="4" stroke="#032565" />
        <rect x="25.3501" y="8.4" width="4" height="4" stroke="#032565" />
        <rect x="29.3501" y="8.4" width="4" height="4" stroke="#032565" />
        <rect x="33.3501" y="8.4" width="4" height="4" stroke="#032565" />
        <rect x="37.3501" y="8.4" width="4" height="4" stroke="#032565" />
        <rect x="41.3501" y="8.4" width="4" height="4" stroke="#032565" />
        <rect x="9.3501" y="12.4" width="4" height="4" stroke="#052C63" />
        <rect x="13.3501" y="12.4" width="4" height="4" stroke="#052C63" />
        <rect x="17.3501" y="12.4" width="4" height="4" stroke="#052C63" />
        <rect x="21.3501" y="12.4" width="4" height="4" stroke="#052C63" />
        <rect x="25.3501" y="12.4" width="4" height="4" stroke="#052C63" />
        <rect x="29.3501" y="12.4" width="4" height="4" stroke="#052C63" />
        <rect x="33.3501" y="12.4" width="4" height="4" stroke="#052C63" />
        <rect x="37.3501" y="12.4" width="4" height="4" stroke="#052C63" />
        <rect x="41.3501" y="12.4" width="4" height="4" stroke="#052C63" />
        <rect x="9.3501" y="16.4" width="4" height="4" stroke="#052C63" />
        <rect x="13.3501" y="16.4" width="4" height="4" stroke="#052C63" />
        <rect x="17.3501" y="16.4" width="4" height="4" stroke="#052C63" />
        <rect x="21.3501" y="16.4" width="4" height="4" stroke="#052C63" />
        <rect x="25.3501" y="16.4" width="4" height="4" stroke="#052C63" />
        <rect x="29.3501" y="16.4" width="4" height="4" stroke="#052C63" />
        <rect x="33.3501" y="16.4" width="4" height="4" stroke="#052C63" />
        <rect x="37.3501" y="16.4" width="4" height="4" stroke="#052C63" />
        <rect x="41.3501" y="16.4" width="4" height="4" stroke="#052C63" />
        <rect x="9.3501" y="20.4" width="4" height="4" stroke="#052C63" />
        <rect x="13.3501" y="20.4" width="4" height="4" stroke="#052C63" />
        <rect x="17.3501" y="20.4" width="4" height="4" stroke="#052C63" />
        <rect x="21.3501" y="20.4" width="4" height="4" stroke="#052C63" />
        <rect x="25.3501" y="20.4" width="4" height="4" stroke="#052C63" />
        <rect x="29.3501" y="20.4" width="4" height="4" stroke="#052C63" />
        <rect x="33.3501" y="20.4" width="4" height="4" stroke="#052C63" />
        <rect x="37.3501" y="20.4" width="4" height="4" stroke="#052C63" />
        <rect x="41.3501" y="20.4" width="4" height="4" stroke="#052C63" />
        <rect x="9.3501" y="24.4" width="4" height="4" stroke="#052C63" />
        <rect x="13.3501" y="24.4" width="4" height="4" stroke="#052C63" />
        <rect x="17.3501" y="24.4" width="4" height="4" stroke="#052C63" />
        <rect x="21.3501" y="24.4" width="4" height="4" stroke="#052C63" />
        <rect x="25.3501" y="24.4" width="4" height="4" stroke="#052C63" />
        <rect x="29.3501" y="24.4" width="4" height="4" stroke="#052C63" />
        <rect x="33.3501" y="24.4" width="4" height="4" stroke="#052C63" />
        <rect x="37.3501" y="24.4" width="4" height="4" stroke="#052C63" />
        <rect x="41.3501" y="24.4" width="4" height="4" stroke="#052C63" />
        <rect x="9.3501" y="28.4" width="4" height="4" stroke="#052C63" />
        <rect x="13.3501" y="28.4" width="4" height="4" stroke="#052C63" />
        <rect x="17.3501" y="28.4" width="4" height="4" stroke="#052C63" />
        <rect x="21.3501" y="28.4" width="4" height="4" stroke="#052C63" />
        <rect x="25.3501" y="28.4" width="4" height="4" stroke="#052C63" />
        <rect x="29.3501" y="28.4" width="4" height="4" stroke="#052C63" />
        <rect x="33.3501" y="28.4" width="4" height="4" stroke="#052C63" />
        <rect x="37.3501" y="28.4" width="4" height="4" stroke="#052C63" />
        <rect x="41.3501" y="28.4" width="4" height="4" stroke="#052C63" />
        <rect x="9.3501" y="32.4" width="4" height="4" stroke="#052C63" />
        <rect x="13.3501" y="32.4" width="4" height="4" stroke="#052C63" />
        <rect x="17.3501" y="32.4" width="4" height="4" stroke="#052C63" />
        <rect x="21.3501" y="32.4" width="4" height="4" stroke="#052C63" />
        <rect x="25.3501" y="32.4" width="4" height="4" stroke="#052C63" />
        <rect x="29.3501" y="32.4" width="4" height="4" stroke="#052C63" />
        <rect x="33.3501" y="32.4" width="4" height="4" stroke="#052C63" />
        <rect x="37.3501" y="32.4" width="4" height="4" stroke="#052C63" />
        <rect x="41.3501" y="32.4" width="4" height="4" stroke="#052C63" />
        <rect x="9.3501" y="36.4" width="4" height="4" stroke="#052C63" />
        <rect x="13.3501" y="36.4" width="4" height="4" stroke="#052C63" />
        <rect x="17.3501" y="36.4" width="4" height="4" stroke="#052C63" />
        <rect x="21.3501" y="36.4" width="4" height="4" stroke="#052C63" />
        <rect x="25.3501" y="36.4" width="4" height="4" stroke="#052C63" />
        <rect x="29.3501" y="36.4" width="4" height="4" stroke="#052C63" />
        <rect x="33.3501" y="36.4" width="4" height="4" stroke="#052C63" />
        <rect x="37.3501" y="36.4" width="4" height="4" stroke="#052C63" />
        <rect x="41.3501" y="36.4" width="4" height="4" stroke="#052C63" />
        <rect x="9.3501" y="40.4" width="4" height="4" stroke="#052C63" />
        <rect x="13.3501" y="40.4" width="4" height="4" stroke="#052C63" />
        <rect x="17.3501" y="40.4" width="4" height="4" stroke="#052C63" />
        <rect x="21.3501" y="40.4" width="4" height="4" stroke="#052C63" />
        <rect x="25.3501" y="40.4" width="4" height="4" stroke="#052C63" />
        <rect x="29.3501" y="40.4" width="4" height="4" stroke="#052C63" />
        <rect x="33.3501" y="40.4" width="4" height="4" stroke="#052C63" />
        <rect x="37.3501" y="40.4" width="4" height="4" stroke="#052C63" />
        <rect x="41.3501" y="40.4" width="4" height="4" stroke="#052C63" />
        <g style="mix-blend-mode:lighten">
            <path
                d="M9.1001 36.5944V13.4056L13.5767 9.05H37.4235L41.9001 13.4056V36.5944L37.4235 40.95H13.5766L9.1001 36.5944Z"
                fill="#00194A" />
            <path
                d="M9.1001 36.5944V13.4056L13.5767 9.05H37.4235L41.9001 13.4056V36.5944L37.4235 40.95H13.5766L9.1001 36.5944Z"
                stroke="#013C94" stroke-width="0.5" />
        </g>
    </g>
    <defs>
        <linearGradient id="paint0_linear_178_140774" x1="9.775" y1="10.15" x2="39.4161"
            y2="42.4608" gradientUnits="userSpaceOnUse">
            <stop stop-color="#028DF2" />
            <stop offset="0.337619" stop-color="#02569A" />
            <stop offset="1" stop-color="#003B94" />
        </linearGradient>
    </defs>
</svg>
    